<svg
    version="1.1"
    xmlns="http://www.w3.org/2000/svg"
    xmlns:xlink="http://www.w3.org/1999/xlink"
    width="519.875" height="519.824"
    >
  <defs>
    <circle id="s1" r="253.093" />
    <path id="s2"
          d="
             M455.398,412.197c33.792-43.021,53.946-97.262,53.946-156.211c0-139.779-113.313-253.093-253.093-253.093c-30.406,0-59.558,5.367-86.566,15.197C272.435,71.989,408.349,247.839,455.398,412.197z
            "/>
    <path id="s3"
          d="
             M220.003,164.337c-39.481-42.533-83.695-76.312-130.523-98.715C36.573,112.011,3.159,180.092,3.159,255.986c0,63.814,23.626,122.104,62.597,166.623C100.111,319.392,164.697,219.907,220.003,164.337z
            "/>
    <path id="s4"
          d="
             M266.638,221.727c-54.792,59.051-109.392,162.422-129.152,257.794c35.419,18.857,75.84,29.559,118.766,29.559c44.132,0,85.618-11.306,121.74-31.163C357.171,381.712,317.868,293.604,266.638,221.727z
            "/>
    <filter id="s5">
      <feGaussianBlur in="SourceAlpha" stdDeviation="2"></feGaussianBlur>
      <feOffset dx="3" dy="3" result="offsetblur"></feOffset>
      <feFlood flood-color="black"></feFlood>
      <feComposite in2="offsetblur" operator="in"></feComposite>
      <feMerge>
        <feMergeNode></feMergeNode>
        <feMergeNode in="SourceGraphic"></feMergeNode>
      </feMerge>
    </filter>
  </defs>

  <use xlink:href="#s1" x="256.252" y="255.986" fill="white" />
  <use xlink:href="#s2" fill="#3E5BA9" filter="url(#s5)" />
  <use xlink:href="#s3" fill="#9F1D20" filter="url(#s5)" />
  <use xlink:href="#s4" fill="#9F1D20" filter="url(#s5)" />
</svg>

