<svg
    version="1.1"
    xmlns="http://www.w3.org/2000/svg"
    xmlns:xlink="http://www.w3.org/1999/xlink"
    width="400" height="400"
    >
  <defs>
    <circle id="s1" r="100" />
    <circle id="s2" r="50" />
    <circle id="s3" r="25" />
    <circle id="s4" r="12.5" />
    <circle id="s5" r="6.25" />
  </defs>

  <symbol id="g2">
    <use xlink:href="#s1" x="200" y="200" />
    <use xlink:href="#s2" x="300" y="200" />
    <use xlink:href="#s3" x="350" y="200" />
    <use xlink:href="#s4" x="375" y="200" />
    <use xlink:href="#s5" x="387.5" y="200" />
    <use xlink:href="#s5" x="362.5" y="200" />
    <use xlink:href="#s5" x="375" y="212.5" />
    <use xlink:href="#s5" x="375" y="187.5" />
    <use xlink:href="#s4" x="325" y="200" />
    <use xlink:href="#s5" x="337.5" y="200" />
    <use xlink:href="#s5" x="312.5" y="200" />
    <use xlink:href="#s5" x="325" y="212.5" />
    <use xlink:href="#s5" x="325" y="187.5" />
    <use xlink:href="#s4" x="350" y="225" />
    <use xlink:href="#s5" x="362.5" y="225" />
    <use xlink:href="#s5" x="337.5" y="225" />
    <use xlink:href="#s5" x="350" y="237.5" />
    <use xlink:href="#s5" x="350" y="212.5" />
    <use xlink:href="#s4" x="350" y="175" />
    <use xlink:href="#s5" x="362.5" y="175" />
    <use xlink:href="#s5" x="337.5" y="175" />
    <use xlink:href="#s5" x="350" y="187.5" />
    <use xlink:href="#s5" x="350" y="162.5" />
    <use xlink:href="#s3" x="250" y="200" />
    <use xlink:href="#s4" x="275" y="200" />
    <use xlink:href="#s5" x="287.5" y="200" />
    <use xlink:href="#s5" x="262.5" y="200" />
    <use xlink:href="#s5" x="275" y="212.5" />
    <use xlink:href="#s5" x="275" y="187.5" />
    <use xlink:href="#s4" x="225" y="200" />
    <use xlink:href="#s5" x="237.5" y="200" />
    <use xlink:href="#s5" x="212.5" y="200" />
    <use xlink:href="#s5" x="225" y="212.5" />
    <use xlink:href="#s5" x="225" y="187.5" />
    <use xlink:href="#s4" x="250" y="225" />
    <use xlink:href="#s5" x="262.5" y="225" />
    <use xlink:href="#s5" x="237.5" y="225" />
    <use xlink:href="#s5" x="250" y="237.5" />
    <use xlink:href="#s5" x="250" y="212.5" />
    <use xlink:href="#s4" x="250" y="175" />
    <use xlink:href="#s5" x="262.5" y="175" />
    <use xlink:href="#s5" x="237.5" y="175" />
    <use xlink:href="#s5" x="250" y="187.5" />
    <use xlink:href="#s5" x="250" y="162.5" />
    <use xlink:href="#s3" x="300" y="250" />
    <use xlink:href="#s4" x="325" y="250" />
    <use xlink:href="#s5" x="337.5" y="250" />
    <use xlink:href="#s5" x="312.5" y="250" />
    <use xlink:href="#s5" x="325" y="262.5" />
    <use xlink:href="#s5" x="325" y="237.5" />
    <use xlink:href="#s4" x="275" y="250" />
    <use xlink:href="#s5" x="287.5" y="250" />
    <use xlink:href="#s5" x="262.5" y="250" />
    <use xlink:href="#s5" x="275" y="262.5" />
    <use xlink:href="#s5" x="275" y="237.5" />
    <use xlink:href="#s4" x="300" y="275" />
    <use xlink:href="#s5" x="312.5" y="275" />
    <use xlink:href="#s5" x="287.5" y="275" />
    <use xlink:href="#s5" x="300" y="287.5" />
    <use xlink:href="#s5" x="300" y="262.5" />
    <use xlink:href="#s4" x="300" y="225" />
    <use xlink:href="#s5" x="312.5" y="225" />
    <use xlink:href="#s5" x="287.5" y="225" />
    <use xlink:href="#s5" x="300" y="237.5" />
    <use xlink:href="#s5" x="300" y="212.5" />
    <use xlink:href="#s3" x="300" y="150" />
    <use xlink:href="#s4" x="325" y="150" />
    <use xlink:href="#s5" x="337.5" y="150" />
    <use xlink:href="#s5" x="312.5" y="150" />
    <use xlink:href="#s5" x="325" y="162.5" />
    <use xlink:href="#s5" x="325" y="137.5" />
    <use xlink:href="#s4" x="275" y="150" />
    <use xlink:href="#s5" x="287.5" y="150" />
    <use xlink:href="#s5" x="262.5" y="150" />
    <use xlink:href="#s5" x="275" y="162.5" />
    <use xlink:href="#s5" x="275" y="137.5" />
    <use xlink:href="#s4" x="300" y="175" />
    <use xlink:href="#s5" x="312.5" y="175" />
    <use xlink:href="#s5" x="287.5" y="175" />
    <use xlink:href="#s5" x="300" y="187.5" />
    <use xlink:href="#s5" x="300" y="162.5" />
    <use xlink:href="#s4" x="300" y="125" />
    <use xlink:href="#s5" x="312.5" y="125" />
    <use xlink:href="#s5" x="287.5" y="125" />
    <use xlink:href="#s5" x="300" y="137.5" />
    <use xlink:href="#s5" x="300" y="112.5" />
    <use xlink:href="#s2" x="100" y="200" />
    <use xlink:href="#s3" x="150" y="200" />
    <use xlink:href="#s4" x="175" y="200" />
    <use xlink:href="#s5" x="187.5" y="200" />
    <use xlink:href="#s5" x="162.5" y="200" />
    <use xlink:href="#s5" x="175" y="212.5" />
    <use xlink:href="#s5" x="175" y="187.5" />
    <use xlink:href="#s4" x="125" y="200" />
    <use xlink:href="#s5" x="137.5" y="200" />
    <use xlink:href="#s5" x="112.5" y="200" />
    <use xlink:href="#s5" x="125" y="212.5" />
    <use xlink:href="#s5" x="125" y="187.5" />
    <use xlink:href="#s4" x="150" y="225" />
    <use xlink:href="#s5" x="162.5" y="225" />
    <use xlink:href="#s5" x="137.5" y="225" />
    <use xlink:href="#s5" x="150" y="237.5" />
    <use xlink:href="#s5" x="150" y="212.5" />
    <use xlink:href="#s4" x="150" y="175" />
    <use xlink:href="#s5" x="162.5" y="175" />
    <use xlink:href="#s5" x="137.5" y="175" />
    <use xlink:href="#s5" x="150" y="187.5" />
    <use xlink:href="#s5" x="150" y="162.5" />
    <use xlink:href="#s3" x="50" y="200" />
    <use xlink:href="#s4" x="75" y="200" />
    <use xlink:href="#s5" x="87.5" y="200" />
    <use xlink:href="#s5" x="62.5" y="200" />
    <use xlink:href="#s5" x="75" y="212.5" />
    <use xlink:href="#s5" x="75" y="187.5" />
    <use xlink:href="#s4" x="25" y="200" />
    <use xlink:href="#s5" x="37.5" y="200" />
    <use xlink:href="#s5" x="12.5" y="200" />
    <use xlink:href="#s5" x="25" y="212.5" />
    <use xlink:href="#s5" x="25" y="187.5" />
    <use xlink:href="#s4" x="50" y="225" />
    <use xlink:href="#s5" x="62.5" y="225" />
    <use xlink:href="#s5" x="37.5" y="225" />
    <use xlink:href="#s5" x="50" y="237.5" />
    <use xlink:href="#s5" x="50" y="212.5" />
    <use xlink:href="#s4" x="50" y="175" />
    <use xlink:href="#s5" x="62.5" y="175" />
    <use xlink:href="#s5" x="37.5" y="175" />
    <use xlink:href="#s5" x="50" y="187.5" />
    <use xlink:href="#s5" x="50" y="162.5" />
    <use xlink:href="#s3" x="100" y="250" />
    <use xlink:href="#s4" x="125" y="250" />
    <use xlink:href="#s5" x="137.5" y="250" />
    <use xlink:href="#s5" x="112.5" y="250" />
    <use xlink:href="#s5" x="125" y="262.5" />
    <use xlink:href="#s5" x="125" y="237.5" />
    <use xlink:href="#s4" x="75" y="250" />
    <use xlink:href="#s5" x="87.5" y="250" />
    <use xlink:href="#s5" x="62.5" y="250" />
    <use xlink:href="#s5" x="75" y="262.5" />
    <use xlink:href="#s5" x="75" y="237.5" />
    <use xlink:href="#s4" x="100" y="275" />
    <use xlink:href="#s5" x="112.5" y="275" />
    <use xlink:href="#s5" x="87.5" y="275" />
    <use xlink:href="#s5" x="100" y="287.5" />
    <use xlink:href="#s5" x="100" y="262.5" />
    <use xlink:href="#s4" x="100" y="225" />
    <use xlink:href="#s5" x="112.5" y="225" />
    <use xlink:href="#s5" x="87.5" y="225" />
    <use xlink:href="#s5" x="100" y="237.5" />
    <use xlink:href="#s5" x="100" y="212.5" />
    <use xlink:href="#s3" x="100" y="150" />
    <use xlink:href="#s4" x="125" y="150" />
    <use xlink:href="#s5" x="137.5" y="150" />
    <use xlink:href="#s5" x="112.5" y="150" />
    <use xlink:href="#s5" x="125" y="162.5" />
    <use xlink:href="#s5" x="125" y="137.5" />
    <use xlink:href="#s4" x="75" y="150" />
    <use xlink:href="#s5" x="87.5" y="150" />
    <use xlink:href="#s5" x="62.5" y="150" />
    <use xlink:href="#s5" x="75" y="162.5" />
    <use xlink:href="#s5" x="75" y="137.5" />
    <use xlink:href="#s4" x="100" y="175" />
    <use xlink:href="#s5" x="112.5" y="175" />
    <use xlink:href="#s5" x="87.5" y="175" />
    <use xlink:href="#s5" x="100" y="187.5" />
    <use xlink:href="#s5" x="100" y="162.5" />
    <use xlink:href="#s4" x="100" y="125" />
    <use xlink:href="#s5" x="112.5" y="125" />
    <use xlink:href="#s5" x="87.5" y="125" />
    <use xlink:href="#s5" x="100" y="137.5" />
    <use xlink:href="#s5" x="100" y="112.5" />
    <use xlink:href="#s2" x="200" y="300" />
    <use xlink:href="#s3" x="250" y="300" />
    <use xlink:href="#s4" x="275" y="300" />
    <use xlink:href="#s5" x="287.5" y="300" />
    <use xlink:href="#s5" x="262.5" y="300" />
    <use xlink:href="#s5" x="275" y="312.5" />
    <use xlink:href="#s5" x="275" y="287.5" />
    <use xlink:href="#s4" x="225" y="300" />
    <use xlink:href="#s5" x="237.5" y="300" />
    <use xlink:href="#s5" x="212.5" y="300" />
    <use xlink:href="#s5" x="225" y="312.5" />
    <use xlink:href="#s5" x="225" y="287.5" />
    <use xlink:href="#s4" x="250" y="325" />
    <use xlink:href="#s5" x="262.5" y="325" />
    <use xlink:href="#s5" x="237.5" y="325" />
    <use xlink:href="#s5" x="250" y="337.5" />
    <use xlink:href="#s5" x="250" y="312.5" />
    <use xlink:href="#s4" x="250" y="275" />
    <use xlink:href="#s5" x="262.5" y="275" />
    <use xlink:href="#s5" x="237.5" y="275" />
    <use xlink:href="#s5" x="250" y="287.5" />
    <use xlink:href="#s5" x="250" y="262.5" />
    <use xlink:href="#s3" x="150" y="300" />
    <use xlink:href="#s4" x="175" y="300" />
    <use xlink:href="#s5" x="187.5" y="300" />
    <use xlink:href="#s5" x="162.5" y="300" />
    <use xlink:href="#s5" x="175" y="312.5" />
    <use xlink:href="#s5" x="175" y="287.5" />
    <use xlink:href="#s4" x="125" y="300" />
    <use xlink:href="#s5" x="137.5" y="300" />
    <use xlink:href="#s5" x="112.5" y="300" />
    <use xlink:href="#s5" x="125" y="312.5" />
    <use xlink:href="#s5" x="125" y="287.5" />
    <use xlink:href="#s4" x="150" y="325" />
    <use xlink:href="#s5" x="162.5" y="325" />
    <use xlink:href="#s5" x="137.5" y="325" />
    <use xlink:href="#s5" x="150" y="337.5" />
    <use xlink:href="#s5" x="150" y="312.5" />
    <use xlink:href="#s4" x="150" y="275" />
    <use xlink:href="#s5" x="162.5" y="275" />
    <use xlink:href="#s5" x="137.5" y="275" />
    <use xlink:href="#s5" x="150" y="287.5" />
    <use xlink:href="#s5" x="150" y="262.5" />
    <use xlink:href="#s3" x="200" y="350" />
    <use xlink:href="#s4" x="225" y="350" />
    <use xlink:href="#s5" x="237.5" y="350" />
    <use xlink:href="#s5" x="212.5" y="350" />
    <use xlink:href="#s5" x="225" y="362.5" />
    <use xlink:href="#s5" x="225" y="337.5" />
    <use xlink:href="#s4" x="175" y="350" />
    <use xlink:href="#s5" x="187.5" y="350" />
    <use xlink:href="#s5" x="162.5" y="350" />
    <use xlink:href="#s5" x="175" y="362.5" />
    <use xlink:href="#s5" x="175" y="337.5" />
    <use xlink:href="#s4" x="200" y="375" />
    <use xlink:href="#s5" x="212.5" y="375" />
    <use xlink:href="#s5" x="187.5" y="375" />
    <use xlink:href="#s5" x="200" y="387.5" />
    <use xlink:href="#s5" x="200" y="362.5" />
    <use xlink:href="#s4" x="200" y="325" />
    <use xlink:href="#s5" x="212.5" y="325" />
    <use xlink:href="#s5" x="187.5" y="325" />
    <use xlink:href="#s5" x="200" y="337.5" />
    <use xlink:href="#s5" x="200" y="312.5" />
    <use xlink:href="#s3" x="200" y="250" />
    <use xlink:href="#s4" x="225" y="250" />
    <use xlink:href="#s5" x="237.5" y="250" />
    <use xlink:href="#s5" x="212.5" y="250" />
    <use xlink:href="#s5" x="225" y="262.5" />
    <use xlink:href="#s5" x="225" y="237.5" />
    <use xlink:href="#s4" x="175" y="250" />
    <use xlink:href="#s5" x="187.5" y="250" />
    <use xlink:href="#s5" x="162.5" y="250" />
    <use xlink:href="#s5" x="175" y="262.5" />
    <use xlink:href="#s5" x="175" y="237.5" />
    <use xlink:href="#s4" x="200" y="275" />
    <use xlink:href="#s5" x="212.5" y="275" />
    <use xlink:href="#s5" x="187.5" y="275" />
    <use xlink:href="#s5" x="200" y="287.5" />
    <use xlink:href="#s5" x="200" y="262.5" />
    <use xlink:href="#s4" x="200" y="225" />
    <use xlink:href="#s5" x="212.5" y="225" />
    <use xlink:href="#s5" x="187.5" y="225" />
    <use xlink:href="#s5" x="200" y="237.5" />
    <use xlink:href="#s5" x="200" y="212.5" />
    <use xlink:href="#s2" x="200" y="100" />
    <use xlink:href="#s3" x="250" y="100" />
    <use xlink:href="#s4" x="275" y="100" />
    <use xlink:href="#s5" x="287.5" y="100" />
    <use xlink:href="#s5" x="262.5" y="100" />
    <use xlink:href="#s5" x="275" y="112.5" />
    <use xlink:href="#s5" x="275" y="87.5" />
    <use xlink:href="#s4" x="225" y="100" />
    <use xlink:href="#s5" x="237.5" y="100" />
    <use xlink:href="#s5" x="212.5" y="100" />
    <use xlink:href="#s5" x="225" y="112.5" />
    <use xlink:href="#s5" x="225" y="87.5" />
    <use xlink:href="#s4" x="250" y="125" />
    <use xlink:href="#s5" x="262.5" y="125" />
    <use xlink:href="#s5" x="237.5" y="125" />
    <use xlink:href="#s5" x="250" y="137.5" />
    <use xlink:href="#s5" x="250" y="112.5" />
    <use xlink:href="#s4" x="250" y="75" />
    <use xlink:href="#s5" x="262.5" y="75" />
    <use xlink:href="#s5" x="237.5" y="75" />
    <use xlink:href="#s5" x="250" y="87.5" />
    <use xlink:href="#s5" x="250" y="62.5" />
    <use xlink:href="#s3" x="150" y="100" />
    <use xlink:href="#s4" x="175" y="100" />
    <use xlink:href="#s5" x="187.5" y="100" />
    <use xlink:href="#s5" x="162.5" y="100" />
    <use xlink:href="#s5" x="175" y="112.5" />
    <use xlink:href="#s5" x="175" y="87.5" />
    <use xlink:href="#s4" x="125" y="100" />
    <use xlink:href="#s5" x="137.5" y="100" />
    <use xlink:href="#s5" x="112.5" y="100" />
    <use xlink:href="#s5" x="125" y="112.5" />
    <use xlink:href="#s5" x="125" y="87.5" />
    <use xlink:href="#s4" x="150" y="125" />
    <use xlink:href="#s5" x="162.5" y="125" />
    <use xlink:href="#s5" x="137.5" y="125" />
    <use xlink:href="#s5" x="150" y="137.5" />
    <use xlink:href="#s5" x="150" y="112.5" />
    <use xlink:href="#s4" x="150" y="75" />
    <use xlink:href="#s5" x="162.5" y="75" />
    <use xlink:href="#s5" x="137.5" y="75" />
    <use xlink:href="#s5" x="150" y="87.5" />
    <use xlink:href="#s5" x="150" y="62.5" />
    <use xlink:href="#s3" x="200" y="150" />
    <use xlink:href="#s4" x="225" y="150" />
    <use xlink:href="#s5" x="237.5" y="150" />
    <use xlink:href="#s5" x="212.5" y="150" />
    <use xlink:href="#s5" x="225" y="162.5" />
    <use xlink:href="#s5" x="225" y="137.5" />
    <use xlink:href="#s4" x="175" y="150" />
    <use xlink:href="#s5" x="187.5" y="150" />
    <use xlink:href="#s5" x="162.5" y="150" />
    <use xlink:href="#s5" x="175" y="162.5" />
    <use xlink:href="#s5" x="175" y="137.5" />
    <use xlink:href="#s4" x="200" y="175" />
    <use xlink:href="#s5" x="212.5" y="175" />
    <use xlink:href="#s5" x="187.5" y="175" />
    <use xlink:href="#s5" x="200" y="187.5" />
    <use xlink:href="#s5" x="200" y="162.5" />
    <use xlink:href="#s4" x="200" y="125" />
    <use xlink:href="#s5" x="212.5" y="125" />
    <use xlink:href="#s5" x="187.5" y="125" />
    <use xlink:href="#s5" x="200" y="137.5" />
    <use xlink:href="#s5" x="200" y="112.5" />
    <use xlink:href="#s3" x="200" y="50" />
    <use xlink:href="#s4" x="225" y="50" />
    <use xlink:href="#s5" x="237.5" y="50" />
    <use xlink:href="#s5" x="212.5" y="50" />
    <use xlink:href="#s5" x="225" y="62.5" />
    <use xlink:href="#s5" x="225" y="37.5" />
    <use xlink:href="#s4" x="175" y="50" />
    <use xlink:href="#s5" x="187.5" y="50" />
    <use xlink:href="#s5" x="162.5" y="50" />
    <use xlink:href="#s5" x="175" y="62.5" />
    <use xlink:href="#s5" x="175" y="37.5" />
    <use xlink:href="#s4" x="200" y="75" />
    <use xlink:href="#s5" x="212.5" y="75" />
    <use xlink:href="#s5" x="187.5" y="75" />
    <use xlink:href="#s5" x="200" y="87.5" />
    <use xlink:href="#s5" x="200" y="62.5" />
    <use xlink:href="#s4" x="200" y="25" />
    <use xlink:href="#s5" x="212.5" y="25" />
    <use xlink:href="#s5" x="187.5" y="25" />
    <use xlink:href="#s5" x="200" y="37.5" />
    <use xlink:href="#s5" x="200" y="12.5" />
  </symbol>

  <use xlink:href="#g2" fill="none" stroke-width="1" stroke="red" />
</svg>
