<svg
    version="1.1"
    xmlns="http://www.w3.org/2000/svg"
    xmlns:xlink="http://www.w3.org/1999/xlink"
    width="700" height="400"
    >
  <defs>
    <line id="s1" x1="0" y1="0" x2="100" y2="0" />
    <marker id="s2" markerWidth="6" markerHeight="6" orient="auto-start-reverse" viewBox="0 0 15 15" refX="2" refY="5" markerUnits="strokeWidth">
      <path d="M0,0 L15,5 L0,10 C0,10 5,5 0,0 z" fill="context-stroke" />
    </marker>
    <text id="s3" font-size="15">normal line stroke-width: 2, marker size: 6, x: 1</text>
    <text id="s4" font-size="15">line stroke-width: 4</text>
    <text id="s5" font-size="15">line stroke-width: 6</text>
    <marker id="s6" markerWidth="4" markerHeight="4" orient="auto-start-reverse" viewBox="0 0 15 15" refX="2" refY="5" markerUnits="strokeWidth">
      <path d="M0,0 L15,5 L0,10 C0,10 5,5 0,0 z" fill="context-stroke" />
    </marker>
    <text id="s7" font-size="15">line stroke-width: 4, marker size: 4</text>
    <marker id="s8" markerWidth="8" markerHeight="8" orient="auto-start-reverse" viewBox="0 0 15 15" refX="2" refY="5" markerUnits="strokeWidth">
      <path d="M0,0 L15,5 L0,10 C0,10 5,5 0,0 z" fill="context-stroke" />
    </marker>
    <text id="s9" font-size="15">line stroke-width: 4, marker size: 8</text>
    <marker id="s10" markerWidth="6" markerHeight="6" orient="auto-start-reverse" viewBox="0 0 15 15" refX="4" refY="5" markerUnits="strokeWidth">
      <path d="M0,0 L15,5 L0,10 L5,5 z" fill="context-stroke" />
    </marker>
    <text id="s11" font-size="15">line stroke-width: 8, indent2 default</text>
    <marker id="s12" markerWidth="6" markerHeight="6" orient="auto-start-reverse" viewBox="0 0 15 15" refX="6" refY="5" markerUnits="strokeWidth">
      <path d="M0,0 L15,5 L0,10 L5,5 z" fill="context-stroke" />
    </marker>
    <text id="s13" font-size="15">line stroke-width: 8, marker x: 6</text>
  </defs>

  <use xlink:href="#s1" x="50" y="30" fill="none" stroke-width="2" stroke="#000000" marker-start="url(#s2)" marker-end="url(#s2)" />
  <use xlink:href="#s3" x="200" y="35" fill="#FB8C00" />
  <use xlink:href="#s1" x="50" y="80" fill="none" stroke-width="4" stroke="#000000" marker-start="url(#s2)" marker-end="url(#s2)" />
  <use xlink:href="#s4" x="200" y="85" fill="#FB8C00" />
  <use xlink:href="#s1" x="50" y="130" fill="none" stroke-width="6" stroke="#000000" marker-start="url(#s2)" marker-end="url(#s2)" />
  <use xlink:href="#s5" x="200" y="135" fill="#FB8C00" />
  <use xlink:href="#s1" x="50" y="180" fill="none" stroke-width="4" stroke="#000000" marker-start="url(#s6)" marker-end="url(#s6)" />
  <use xlink:href="#s7" x="200" y="185" fill="#FB8C00" />
  <use xlink:href="#s1" x="50" y="230" fill="none" stroke-width="4" stroke="#000000" marker-start="url(#s8)" marker-end="url(#s8)" />
  <use xlink:href="#s9" x="200" y="235" fill="#FB8C00" />
  <use xlink:href="#s1" x="50" y="280" fill="none" stroke-width="8" stroke="#000000" marker-start="url(#s10)" marker-end="url(#s10)" />
  <use xlink:href="#s11" x="200" y="285" fill="#FB8C00" />
  <use xlink:href="#s1" x="50" y="330" fill="none" stroke-width="8" stroke="#000000" marker-start="url(#s12)" marker-end="url(#s12)" />
  <use xlink:href="#s13" x="200" y="335" fill="#FB8C00" />
</svg>

