<svg
    version="1.1"
    xmlns="http://www.w3.org/2000/svg"
    xmlns:xlink="http://www.w3.org/1999/xlink"
    width="400" height="400"
    >
  <defs>
    <polygon id="s1"
          points="
            190.0000,200.0000
            190.0000,330.0000
            180.0000,330.0000
            200.0000,350.0000
            220.0000,330.0000
            210.0000,330.0000
            210.0000,200.0000
            "/>
    <polygon id="s2"
          points="
            191.0557,195.5279
            150.0000,277.6393
            141.0557,273.1672
            150.0000,300.0000
            176.8328,291.0557
            167.8885,286.5836
            208.9443,204.4721
            "/>
    <polygon id="s3"
          points="
            195.5279,191.0557
            113.4164,232.1115
            108.9443,223.1672
            100.0000,250.0000
            126.8328,258.9443
            122.3607,250.0000
            204.4721,208.9443
            "/>
    <polygon id="s4"
          points="
            200.0000,190.0000
            70.0000,190.0000
            70.0000,180.0000
            50.0000,200.0000
            70.0000,220.0000
            70.0000,210.0000
            200.0000,210.0000
            "/>
    <polygon id="s5"
          points="
            204.4721,191.0557
            122.3607,150.0000
            126.8328,141.0557
            100.0000,150.0000
            108.9443,176.8328
            113.4164,167.8885
            195.5279,208.9443
            "/>
    <polygon id="s6"
          points="
            208.9443,195.5279
            167.8885,113.4164
            176.8328,108.9443
            150.0000,100.0000
            141.0557,126.8328
            150.0000,122.3607
            191.0557,204.4721
            "/>
    <polygon id="s7"
          points="
            190.0000,200.0000
            190.0000,70.0000
            180.0000,70.0000
            200.0000,50.0000
            220.0000,70.0000
            210.0000,70.0000
            210.0000,200.0000
            "/>
    <polygon id="s8"
          points="
            208.9443,204.4721
            250.0000,122.3607
            258.9443,126.8328
            250.0000,100.0000
            223.1672,108.9443
            232.1115,113.4164
            191.0557,195.5279
            "/>
    <polygon id="s9"
          points="
            204.4721,208.9443
            286.5836,167.8885
            291.0557,176.8328
            300.0000,150.0000
            273.1672,141.0557
            277.6393,150.0000
            195.5279,191.0557
            "/>
    <polygon id="s10"
          points="
            200.0000,210.0000
            330.0000,210.0000
            330.0000,220.0000
            350.0000,200.0000
            330.0000,180.0000
            330.0000,190.0000
            200.0000,190.0000
            "/>
    <polygon id="s11"
          points="
            195.5279,208.9443
            277.6393,250.0000
            273.1672,258.9443
            300.0000,250.0000
            291.0557,223.1672
            286.5836,232.1115
            204.4721,191.0557
            "/>
    <polygon id="s12"
          points="
            191.0557,204.4721
            232.1115,286.5836
            223.1672,291.0557
            250.0000,300.0000
            258.9443,273.1672
            250.0000,277.6393
            208.9443,195.5279
            "/>
  </defs>

  <use xlink:href="#s1" fill="#ED6E46" stroke-width="2" stroke="green" />
  <use xlink:href="#s2" fill="#ED6E46" stroke-width="2" stroke="green" />
  <use xlink:href="#s3" fill="#ED6E46" stroke-width="2" stroke="green" />
  <use xlink:href="#s4" fill="#ED6E46" stroke-width="2" stroke="green" />
  <use xlink:href="#s5" fill="#ED6E46" stroke-width="2" stroke="green" />
  <use xlink:href="#s6" fill="#ED6E46" stroke-width="2" stroke="green" />
  <use xlink:href="#s7" fill="#ED6E46" stroke-width="2" stroke="green" />
  <use xlink:href="#s8" fill="#ED6E46" stroke-width="2" stroke="green" />
  <use xlink:href="#s9" fill="#ED6E46" stroke-width="2" stroke="green" />
  <use xlink:href="#s10" fill="#ED6E46" stroke-width="2" stroke="green" />
  <use xlink:href="#s11" fill="#ED6E46" stroke-width="2" stroke="green" />
  <use xlink:href="#s12" fill="#ED6E46" stroke-width="2" stroke="green" />
</svg>
