<svg
    version="1.1"
    xmlns="http://www.w3.org/2000/svg"
    xmlns:xlink="http://www.w3.org/1999/xlink"
    width="400" height="400"
    >
  <defs>
    <polygon id="s1"
          points="
            190,200
            190,330
            180,330
            200,350
            220,330
            210,330
            210,200
            "/>
    <polygon id="s2"
          points="
            191.0557,195.5279
            150,277.6393
            141.0557,273.1672
            150,300
            176.8328,291.0557
            167.8885,286.5836
            208.9443,204.4721
            "/>
    <polygon id="s3"
          points="
            195.5279,191.0557
            113.4164,232.1115
            108.9443,223.1672
            100,250
            126.8328,258.9443
            122.3607,250
            204.4721,208.9443
            "/>
    <polygon id="s4"
          points="
            200,190
            70,190
            70,180
            50,200
            70,220
            70,210
            200,210
            "/>
    <polygon id="s5"
          points="
            204.4721,191.0557
            122.3607,150
            126.8328,141.0557
            100,150
            108.9443,176.8328
            113.4164,167.8885
            195.5279,208.9443
            "/>
    <polygon id="s6"
          points="
            208.9443,195.5279
            167.8885,113.4164
            176.8328,108.9443
            150,100
            141.0557,126.8328
            150,122.3607
            191.0557,204.4721
            "/>
    <polygon id="s7"
          points="
            190,200
            190,70
            180,70
            200,50
            220,70
            210,70
            210,200
            "/>
    <polygon id="s8"
          points="
            208.9443,204.4721
            250,122.3607
            258.9443,126.8328
            250,100
            223.1672,108.9443
            232.1115,113.4164
            191.0557,195.5279
            "/>
    <polygon id="s9"
          points="
            204.4721,208.9443
            286.5836,167.8885
            291.0557,176.8328
            300,150
            273.1672,141.0557
            277.6393,150
            195.5279,191.0557
            "/>
    <polygon id="s10"
          points="
            200,210
            330,210
            330,220
            350,200
            330,180
            330,190
            200,190
            "/>
    <polygon id="s11"
          points="
            195.5279,208.9443
            277.6393,250
            273.1672,258.9443
            300,250
            291.0557,223.1672
            286.5836,232.1115
            204.4721,191.0557
            "/>
    <polygon id="s12"
          points="
            191.0557,204.4721
            232.1115,286.5836
            223.1672,291.0557
            250,300
            258.9443,273.1672
            250,277.6393
            208.9443,195.5279
            "/>
  </defs>

  <use xlink:href="#s1" fill="#ED6E46" stroke-width="2" stroke="green" />
  <use xlink:href="#s2" fill="#ED6E46" stroke-width="2" stroke="green" />
  <use xlink:href="#s3" fill="#ED6E46" stroke-width="2" stroke="green" />
  <use xlink:href="#s4" fill="#ED6E46" stroke-width="2" stroke="green" />
  <use xlink:href="#s5" fill="#ED6E46" stroke-width="2" stroke="green" />
  <use xlink:href="#s6" fill="#ED6E46" stroke-width="2" stroke="green" />
  <use xlink:href="#s7" fill="#ED6E46" stroke-width="2" stroke="green" />
  <use xlink:href="#s8" fill="#ED6E46" stroke-width="2" stroke="green" />
  <use xlink:href="#s9" fill="#ED6E46" stroke-width="2" stroke="green" />
  <use xlink:href="#s10" fill="#ED6E46" stroke-width="2" stroke="green" />
  <use xlink:href="#s11" fill="#ED6E46" stroke-width="2" stroke="green" />
  <use xlink:href="#s12" fill="#ED6E46" stroke-width="2" stroke="green" />
</svg>
