<svg
    version="1.1"
    xmlns="http://www.w3.org/2000/svg"
    xmlns:xlink="http://www.w3.org/1999/xlink"
    width="400" height="400"
    >
  <defs>
    <polygon id="s1"
          points="
            190.0,200.0
            190.0,330.0
            180.0,330.0
            200,350
            220.0,330.0
            210.0,330.0
            210.0,200.0
            "/>
    <polygon id="s2"
          points="
            191.05572809000085,195.52786404500043
            150.0,277.6393202250021
            141.05572809000083,273.16718427000256
            150.0,300.0
            176.83281572999746,291.05572809000085
            167.8885438199983,286.5835921350013
            208.94427190999915,204.47213595499957
            "/>
    <polygon id="s3"
          points="
            195.52786404500043,191.05572809000085
            113.41640786499875,232.1114561800017
            108.94427190999916,223.16718427000254
            100.0,250.00000000000003
            126.83281572999748,258.9442719099992
            122.36067977499789,250.0
            204.47213595499957,208.94427190999915
            "/>
    <polygon id="s4"
          points="
            200.0,190.0
            70.0,190.0
            70.0,180.0
            50,200
            70.0,220.0
            70.0,210.0
            200.0,210.0
            "/>
    <polygon id="s5"
          points="
            204.47213595499957,191.05572809000085
            122.3606797749979,150.0
            126.83281572999748,141.05572809000083
            100.0,149.99999999999997
            108.94427190999916,176.83281572999746
            113.41640786499873,167.8885438199983
            195.52786404500043,208.94427190999915
            "/>
    <polygon id="s6"
          points="
            208.94427190999915,195.52786404500043
            167.8885438199983,113.41640786499875
            176.83281572999746,108.94427190999916
            149.99999999999997,100.0
            141.05572809000083,126.83281572999748
            150.0,122.36067977499789
            191.05572809000085,204.47213595499957
            "/>
    <polygon id="s7"
          points="
            190.0,200.0
            190.0,70.0
            180.0,70.0
            200,50
            220.0,70.0
            210.0,70.0
            210.0,200.0
            "/>
    <polygon id="s8"
          points="
            208.94427190999915,204.47213595499957
            250.0,122.3606797749979
            258.9442719099992,126.83281572999748
            250.00000000000003,100.0
            223.16718427000254,108.94427190999916
            232.1114561800017,113.41640786499873
            191.05572809000085,195.52786404500043
            "/>
    <polygon id="s9"
          points="
            204.47213595499957,208.94427190999915
            286.5835921350013,167.8885438199983
            291.05572809000085,176.83281572999746
            300.0,150.0
            273.16718427000256,141.05572809000083
            277.6393202250021,150.0
            195.52786404500043,191.05572809000085
            "/>
    <polygon id="s10"
          points="
            200.0,210.0
            330.0,210.0
            330.0,220.0
            350,200
            330.0,180.0
            330.0,190.0
            200.0,190.0
            "/>
    <polygon id="s11"
          points="
            195.52786404500043,208.94427190999915
            277.6393202250021,250.0
            273.16718427000256,258.9442719099992
            300.0,250.0
            291.05572809000085,223.16718427000254
            286.5835921350013,232.1114561800017
            204.47213595499957,191.05572809000085
            "/>
    <polygon id="s12"
          points="
            191.05572809000085,204.47213595499957
            232.1114561800017,286.5835921350013
            223.16718427000254,291.05572809000085
            250.0,300.0
            258.9442719099992,273.16718427000256
            250.0,277.6393202250021
            208.94427190999915,195.52786404500043
            "/>
  </defs>

  <use xlink:href="#s1" fill="#ED6E46" stroke-width="2" stroke="green" />
  <use xlink:href="#s2" fill="#ED6E46" stroke-width="2" stroke="green" />
  <use xlink:href="#s3" fill="#ED6E46" stroke-width="2" stroke="green" />
  <use xlink:href="#s4" fill="#ED6E46" stroke-width="2" stroke="green" />
  <use xlink:href="#s5" fill="#ED6E46" stroke-width="2" stroke="green" />
  <use xlink:href="#s6" fill="#ED6E46" stroke-width="2" stroke="green" />
  <use xlink:href="#s7" fill="#ED6E46" stroke-width="2" stroke="green" />
  <use xlink:href="#s8" fill="#ED6E46" stroke-width="2" stroke="green" />
  <use xlink:href="#s9" fill="#ED6E46" stroke-width="2" stroke="green" />
  <use xlink:href="#s10" fill="#ED6E46" stroke-width="2" stroke="green" />
  <use xlink:href="#s11" fill="#ED6E46" stroke-width="2" stroke="green" />
  <use xlink:href="#s12" fill="#ED6E46" stroke-width="2" stroke="green" />
</svg>
