<svg
    version="1.1"
    xmlns="http://www.w3.org/2000/svg"
    xmlns:xlink="http://www.w3.org/1999/xlink"
    width="500" height="500"
    >
  <defs>
    <polygon id="s1"
          points="
            240.0,250.0
            240.0,400.0
            230.0,400.0
            250,420
            270.0,400.0
            260.0,400.0
            260.0,250.0
            "/>
    <polygon id="s2"
          points="
            241.05572809000085,245.52786404500043
            191.05572809000085,345.5278640450004
            182.11145618000168,341.05572809000085
            191.05572809000085,367.8885438199983
            217.88854381999832,358.94427190999915
            208.94427190999915,354.4721359549996
            258.94427190999915,254.47213595499957
            "/>
    <polygon id="s3"
          points="
            245.52786404500043,241.05572809000085
            145.52786404500043,291.05572809000085
            141.05572809000085,282.1114561800017
            132.11145618000168,308.94427190999915
            158.94427190999915,317.8885438199983
            154.47213595499957,308.94427190999915
            254.47213595499957,258.94427190999915
            "/>
    <polygon id="s4"
          points="
            250.0,240.0
            100.0,240.0
            100.0,230.0
            80,250
            100.0,270.0
            100.0,260.0
            250.0,260.0
            "/>
    <polygon id="s5"
          points="
            254.47213595499957,241.05572809000085
            154.47213595499957,191.05572809000085
            158.94427190999917,182.11145618000168
            132.11145618000168,191.05572809000085
            141.05572809000083,217.88854381999832
            145.52786404500043,208.94427190999915
            245.52786404500043,258.94427190999915
            "/>
    <polygon id="s6"
          points="
            258.94427190999915,245.52786404500043
            208.94427190999915,145.52786404500043
            217.88854381999832,141.05572809000085
            191.05572809000085,132.11145618000168
            182.11145618000168,158.94427190999915
            191.05572809000085,154.47213595499957
            241.05572809000085,254.47213595499957
            "/>
    <polygon id="s7"
          points="
            240.0,250.0
            240.0,100.0
            230.0,100.0
            250,80
            270.0,100.0
            260.0,100.0
            260.0,250.0
            "/>
    <polygon id="s8"
          points="
            258.94427190999915,254.47213595499957
            308.94427190999915,154.47213595499957
            317.8885438199983,158.94427190999917
            308.94427190999915,132.11145618000168
            282.1114561800017,141.05572809000083
            291.05572809000085,145.52786404500043
            241.05572809000085,245.52786404500043
            "/>
    <polygon id="s9"
          points="
            254.47213595499957,258.94427190999915
            354.4721359549996,208.94427190999915
            358.94427190999915,217.88854381999832
            367.8885438199983,191.05572809000085
            341.05572809000085,182.11145618000168
            345.5278640450004,191.05572809000085
            245.52786404500043,241.05572809000085
            "/>
    <polygon id="s10"
          points="
            250.0,260.0
            400.0,260.0
            400.0,270.0
            420,250
            400.0,230.0
            400.0,240.0
            250.0,240.0
            "/>
    <polygon id="s11"
          points="
            245.52786404500043,258.94427190999915
            345.5278640450004,308.94427190999915
            341.05572809000085,317.8885438199983
            367.8885438199983,308.94427190999915
            358.94427190999915,282.1114561800017
            354.4721359549996,291.05572809000085
            254.47213595499957,241.05572809000085
            "/>
    <polygon id="s12"
          points="
            241.05572809000085,254.47213595499957
            291.05572809000085,354.4721359549996
            282.1114561800017,358.94427190999915
            308.94427190999915,367.8885438199983
            317.8885438199983,341.05572809000085
            308.94427190999915,345.5278640450004
            258.94427190999915,245.52786404500043
            "/>
  </defs>

  <use xlink:href="#s1" fill="#ED6E46" stroke-width="2" stroke="green" />
  <use xlink:href="#s2" fill="#ED6E46" stroke-width="2" stroke="green" />
  <use xlink:href="#s3" fill="#ED6E46" stroke-width="2" stroke="green" />
  <use xlink:href="#s4" fill="#ED6E46" stroke-width="2" stroke="green" />
  <use xlink:href="#s5" fill="#ED6E46" stroke-width="2" stroke="green" />
  <use xlink:href="#s6" fill="#ED6E46" stroke-width="2" stroke="green" />
  <use xlink:href="#s7" fill="#ED6E46" stroke-width="2" stroke="green" />
  <use xlink:href="#s8" fill="#ED6E46" stroke-width="2" stroke="green" />
  <use xlink:href="#s9" fill="#ED6E46" stroke-width="2" stroke="green" />
  <use xlink:href="#s10" fill="#ED6E46" stroke-width="2" stroke="green" />
  <use xlink:href="#s11" fill="#ED6E46" stroke-width="2" stroke="green" />
  <use xlink:href="#s12" fill="#ED6E46" stroke-width="2" stroke="green" />
</svg>
